<svg width="48" height="48" viewBox="0 0 48 48" fill="none" xmlns="http://www.w3.org/2000/svg">
<path d="M38 28.0001L36.392 39.2521C36.252 40.2261 36.184 40.7141 35.948 41.0821C35.7406 41.4047 35.4449 41.6609 35.096 41.8201C34.702 42.0001 34.21 42.0001 33.23 42.0001H28M38 28.0001H28M38 28.0001C40.606 26.7921 42 23.5281 42 20.6681C42 17.5961 39.94 14.9681 37.02 13.8741C36.7232 13.7617 36.4672 13.5624 36.2852 13.3024C36.1033 13.0423 36.0039 12.7335 36 12.4161C36 9.88612 33.76 7.83412 31 7.83412C30.5467 7.83412 30.1107 7.88678 29.692 7.99212C28.828 8.20612 27.862 8.15812 27.118 7.70212C25.2754 6.57968 23.1575 5.99049 21 6.00012C14.924 6.00012 10 10.5141 10 16.0841C10 16.7881 9.54 17.4321 8.886 17.7981C7.156 18.7601 6 20.5081 6 22.5001C6 25.0541 7.424 27.3801 10 28.0001M28 42.0001V28.0001M28 42.0001H20M28 28.0001H20M10 28.0001L11.608 39.2521V39.2561C11.748 40.2281 11.816 40.7161 12.052 41.0821C12.2594 41.4047 12.5551 41.6609 12.904 41.8201C13.298 42.0001 13.79 42.0001 14.77 42.0001H20M10 28.0001H20M20 42.0001V28.0001" stroke="#4A1211" stroke-width="4" stroke-linecap="round" stroke-linejoin="round"/>
</svg>
