<svg width="48" height="48" viewBox="0 0 48 48" fill="none" xmlns="http://www.w3.org/2000/svg">
<path d="M21.3439 43.8299C16.0846 44.5342 11.3205 43.1205 8.09959 39.8996C4.87873 36.6787 3.46497 31.9146 4.1693 26.6553C4.87364 21.396 7.63839 16.0723 11.8553 11.8553C16.0723 7.63839 21.396 4.87364 26.6553 4.1693C31.9146 3.46497 36.6787 4.87873 39.8996 8.09959C43.1205 11.3205 44.5342 16.0846 43.8299 21.3439C43.1255 26.6032 40.3608 31.9269 36.1439 36.1439C31.9269 40.3608 26.6032 43.1255 21.3439 43.8299Z" stroke="#4A1211" stroke-width="4" stroke-linecap="round" stroke-linejoin="round"/>
<path d="M39.5982 8.39941C39.9982 27.9994 7.99825 19.9994 8.39825 39.5994" stroke="#4A1211" stroke-width="4" stroke-linecap="round" stroke-linejoin="round"/>
</svg>
