<svg width="48" height="48" viewBox="0 0 48 48" fill="none" xmlns="http://www.w3.org/2000/svg">
<path d="M20.45 40.55C19.4833 39.5833 19 38.4 19 37C19 35.6 19.4833 34.4167 20.45 33.45C21.4167 32.4833 22.6 32 24 32C25.4 32 26.5833 32.4833 27.55 33.45C28.5167 34.4167 29 35.6 29 37C29 38.4 28.5167 39.5833 27.55 40.55C26.5833 41.5167 25.4 42 24 42C22.6 42 21.4167 41.5167 20.45 40.55ZM12.7 30.7L8.5 26.4C10.4667 24.4333 12.7753 22.8753 15.426 21.726C18.0767 20.5767 20.9347 20.0013 24 20C27.0653 19.9987 29.924 20.582 32.576 21.75C35.228 22.918 37.536 24.5013 39.5 26.5L35.3 30.7C33.8333 29.2333 32.1333 28.0833 30.2 27.25C28.2667 26.4167 26.2 26 24 26C21.8 26 19.7333 26.4167 17.8 27.25C15.8667 28.0833 14.1667 29.2333 12.7 30.7ZM4.2 22.2L0 18C3.06667 14.8667 6.65 12.4167 10.75 10.65C14.85 8.88333 19.2667 8 24 8C28.7333 8 33.15 8.88333 37.25 10.65C41.35 12.4167 44.9333 14.8667 48 18L43.8 22.2C41.2333 19.6333 38.2587 17.6253 34.876 16.176C31.4933 14.7267 27.868 14.0013 24 14C20.132 13.9987 16.5073 14.724 13.126 16.176C9.74467 17.628 6.76933 19.636 4.2 22.2Z" fill="#4A1211"/>
</svg>
