<svg width="48" height="48" viewBox="0 0 48 48" fill="none" xmlns="http://www.w3.org/2000/svg">
<path d="M30.3195 4.02004C29.8585 3.93737 29.3832 4.02251 28.9795 4.26004L4.99953 18.28C4.99953 18.28 4.83953 18.42 4.73953 18.48C4.67953 18.54 4.59953 18.58 4.53953 18.64C4.39953 18.8 4.27953 18.96 4.19953 19.16C4.19953 19.18 4.15953 19.2 4.15953 19.24C4.05953 19.46 4.01953 19.7 4.01953 19.96V40.02C4.01953 41.12 4.91953 42.02 6.01953 42.02H42.0195C43.1195 42.02 44.0195 41.12 44.0195 40.02V20.02C44.0195 9.18004 35.0795 4.84004 30.3395 4.04004L30.3195 4.02004ZM12.9995 36C11.3395 36 9.99953 34.66 9.99953 33C9.99953 31.34 11.3395 30 12.9995 30C14.6595 30 15.9995 31.34 15.9995 33C15.9995 34.66 14.6595 36 12.9995 36ZM22.9995 30C21.3395 30 19.9995 28.66 19.9995 27C19.9995 25.34 21.3395 24 22.9995 24C24.6595 24 25.9995 25.34 25.9995 27C25.9995 28.66 24.6595 30 22.9995 30ZM33.9995 36C31.7995 36 29.9995 34.2 29.9995 32C29.9995 29.8 31.7995 28 33.9995 28C36.1995 28 37.9995 29.8 37.9995 32C37.9995 34.2 36.1995 36 33.9995 36ZM13.3995 18L30.3395 8.12004C32.4595 8.66004 38.8395 10.82 39.8595 18H13.3995Z" fill="#FBF3DC"/>
</svg>
