<svg width="48" height="48" viewBox="0 0 48 48" fill="none" xmlns="http://www.w3.org/2000/svg">
<path d="M16.6166 11.5992C17.3552 10.2337 18.4578 9.09972 19.8019 8.32297C21.146 7.54623 22.679 7.15714 24.2309 7.19891C25.7827 7.24067 27.2926 7.71166 28.593 8.55958C29.8933 9.4075 30.9333 10.5992 31.5974 12.0024C29.8492 12.0417 28.1504 12.5895 26.7085 13.5788C25.2666 14.568 24.1441 15.9559 23.4782 17.5728C22.8633 16.5499 22.1277 15.6047 21.287 14.7576C19.9349 13.4298 18.3523 12.3596 16.6166 11.5992ZM40.7822 21.6C40.795 21.4016 40.8014 21.2016 40.8014 21C40.8022 19.0499 40.1696 17.1522 38.9988 15.5927C37.8279 14.0332 36.1823 12.8962 34.3094 12.3528C33.6625 10.3034 32.4192 8.49351 30.7384 7.15441C29.0576 5.81531 27.0157 5.00784 24.8736 4.83521C22.7315 4.66259 20.5867 5.13266 18.7131 6.18533C16.8396 7.23799 15.3225 8.82544 14.3558 10.7448C13.4011 10.4476 12.4288 10.2103 11.4446 10.0344C9.77986 9.73529 8.09116 9.58988 6.3998 9.59996L5.9582 9.61436H5.9486C5.65503 9.6315 5.37797 9.75585 5.17003 9.96379C4.96209 10.1717 4.83774 10.4488 4.8206 10.7424V10.7448L4.8014 11.196C4.79008 12.8896 4.93469 14.5808 5.2334 16.248C5.5286 17.8848 6.0278 19.7616 6.8774 21.6H6.0014C5.68314 21.6 5.37791 21.7264 5.15287 21.9514C4.92783 22.1765 4.8014 22.4817 4.8014 22.8V24C4.8014 25.656 5.0126 27.264 5.4062 28.8H42.5966C42.9998 27.2319 43.203 25.6191 43.2014 24V22.8C43.2014 22.4817 43.075 22.1765 42.8499 21.9514C42.6249 21.7264 42.3197 21.6 42.0014 21.6H40.7822ZM9.563 21.6C8.5214 19.7232 7.9262 17.6664 7.595 15.8208C7.36864 14.5605 7.23866 13.2848 7.2062 12.0048L7.4798 12.0144C8.3726 12.0456 9.6158 12.1416 11.0174 12.396C13.8494 12.9072 17.1758 14.04 19.5902 16.4544C21.0686 17.9328 22.0694 19.7568 22.7414 21.6H18.5006L14.051 17.1504C13.9394 17.0389 13.807 16.9506 13.6613 16.8904C13.5156 16.8301 13.3594 16.7992 13.2017 16.7993C13.0441 16.7994 12.888 16.8306 12.7423 16.891C12.5967 16.9515 12.4644 17.04 12.353 17.1516C12.2416 17.2631 12.1532 17.3956 12.093 17.5413C12.0328 17.687 12.0018 17.8431 12.0019 18.0008C12.002 18.1585 12.0332 18.3146 12.0937 18.4602C12.1541 18.6058 12.2426 18.7381 12.3542 18.8496L15.107 21.6H9.563ZM25.2782 21.6L25.2134 21.4056C25.1612 20.5001 25.2961 19.5936 25.6098 18.7427C25.9235 17.8917 26.4092 17.1145 27.0366 16.4596C27.664 15.8048 28.4197 15.2862 29.2564 14.9363C30.0932 14.5865 30.9931 14.4128 31.8999 14.4262C32.8067 14.4396 33.7011 14.6398 34.5271 15.0142C35.3532 15.3886 36.0932 15.9292 36.701 16.6024C37.3088 17.2755 37.7714 18.0667 38.0598 18.9265C38.3482 19.7864 38.4563 20.6965 38.3774 21.6H25.2782ZM24.0014 43.2C20.1761 43.2008 16.4377 42.059 13.2657 39.921C10.0937 37.7829 7.63268 34.7461 6.1982 31.2H41.807C40.3724 34.7465 37.9109 37.7836 34.7385 39.9216C31.566 42.0597 27.8271 43.2013 24.0014 43.2Z" fill="#FBF3DC"/>
</svg>
