<svg width="48" height="48" viewBox="0 0 48 48" fill="none" xmlns="http://www.w3.org/2000/svg">
<path d="M7.00014 29.0001C7.00014 29.0001 6.95614 32.7481 8.45614 37.2481C9.32914 39.8641 10.3701 41.4671 11.6791 42.2511C13.3561 43.2561 15.0761 41.2711 16.0581 39.5811C17.0201 37.9241 18.4331 36.2281 19.5481 35.0001M33.0001 7.91113C35.6231 8.35113 38.5321 8.91713 39.6261 9.41913C41.0521 10.0731 42.4861 11.4051 43.0571 12.8301C43.5881 14.1541 42.2101 15.1701 40.9641 15.8641C39.5591 16.6471 38.0951 17.8741 36.8991 19.0001" stroke="#FBF3DC" stroke-width="4" stroke-linecap="round" stroke-linejoin="round"/>
<path d="M24.2034 29.776L21.7014 31.513C21.2438 31.8308 20.8848 32.2709 20.6654 32.783C20.3562 33.5047 19.7738 34.0745 19.0456 34.368C18.3174 34.6614 17.5026 34.6546 16.7794 34.349L8.80442 30.98C8.0961 30.6808 7.532 30.1178 7.2315 29.41C6.93101 28.7023 6.91771 27.9054 7.19441 27.188L7.64442 26.019C8.52353 23.736 10.1322 21.8074 12.2204 20.533M30.7214 24.508L32.1114 23.004L33.0234 22.017C33.3383 21.6758 33.7217 21.4049 34.1484 21.222C34.921 20.8909 35.5385 20.2779 35.8751 19.5077C36.2118 18.7375 36.2423 17.8679 35.9604 17.076L33.1084 9.066C32.8787 8.42032 32.4199 7.88146 31.8192 7.55168C31.2184 7.2219 30.5175 7.12415 29.8494 7.277L28.6314 7.556C25.9768 8.1629 23.6495 9.75018 22.1154 12" stroke="#FBF3DC" stroke-width="4" stroke-linecap="round" stroke-linejoin="round"/>
<path d="M13.4101 23.0791C12.6221 22.5144 12.0784 21.6711 11.8896 20.7202C11.7007 19.7693 11.8807 18.7821 12.3931 17.9591C13.9428 15.4658 16.0493 13.3656 18.5471 11.8231C19.3542 11.325 20.3183 11.1467 21.2502 11.3232C22.182 11.4998 23.0141 12.0184 23.5831 12.7771L29.5151 20.6861C29.8374 21.1158 30.0698 21.6059 30.1986 22.1273C30.3273 22.6487 30.3498 23.1907 30.2646 23.7209C30.1794 24.2512 29.9883 24.7588 29.7026 25.2137C29.417 25.6685 29.0427 26.0611 28.6021 26.3681L28.3621 26.5351C28.0611 26.7451 27.7901 26.9951 27.5581 27.2781L26.8741 28.1101C26.2303 28.8939 25.3129 29.4038 24.3074 29.5368C23.3019 29.6697 22.2834 29.4157 21.4581 28.8261L13.4101 23.0791Z" stroke="#FBF3DC" stroke-width="4"/>
</svg>
