<?xml version="1.0" encoding="UTF-8"?>
<svg id="Ebene_2" data-name="Ebene 2" xmlns="http://www.w3.org/2000/svg" viewBox="0 0 2097.82 2439.33">
  <defs>
    <style>
      .cls-1 {
        fill: #4a1211;
        fill-rule: evenodd;
      }
    </style>
  </defs>
  <g id="Layer_1" data-name="Layer 1">
    <path class="cls-1" d="M1319.17,818.12c-68.36,108.14-135.68,181.9-135.99,312.3-66.66-104.62.84-220.67,65.43-321.41,81.6-127.23,130.92-232.32,72.79-384.38,98.83,155.52,90.94,246.09-2.23,393.49M1185.86,0c514.57,78.37,911.96,592.21,911.96,1214.48,0,676.46-469.61,1224.84-1048.91,1224.84S0,1890.94,0,1214.48C0,597.61,390.51,87.32,898.62,2.19l2.8,1.93c153.49,125.25,191.29,332.02,163.1,512.8-20.63,132.38-90.35,244.29-159.33,360.87-89.67,151.52-74.18,251.56-20.17,406.36,86.18.02,172.36.05,258.54.05-149.24-194.44-153.56-322.72-59.53-536.76,34.66-78.81,64.13-158.68,74.11-242.54,21.1-177.29-99.18-348.07,27.96-502.98l-.24-1.91ZM564.79,1342.64c347.2.3,601.47.58,948.68.86,34.79.02,67.34,4.59,88.83,26.85,21.12,21.86,26.38,52.1,25.33,82.44-1.89,54.08-18.98,108.69-47.96,160.51,115.6-31.8,219.39-148.14,76.25-196.59,217.02,27.93,102.93,230.84-137.75,282.96-173.18,197.58-520.06,313.99-807.86,110.49-60.97-43.11-138.14-118.05-189.82-200.39-40.23-64.06-65.01-132.61-54.86-194.21,9.72-58.85,41.6-72.97,99.17-72.92Z"/>
  </g>
</svg>