<svg width="48" height="48" viewBox="0 0 48 48" fill="none" xmlns="http://www.w3.org/2000/svg">
<path d="M22 36C18.1 36 14.792 34.642 12.076 31.926C9.36001 29.21 8.00134 25.9013 8.00001 22V10C8.00001 8.9 8.39201 7.95867 9.17601 7.176C9.96001 6.39333 10.9013 6.00133 12 6H37C38.9333 6 40.5833 6.68333 41.95 8.05C43.3167 9.41667 44 11.0667 44 13C44 14.9333 43.3167 16.5833 41.95 17.95C40.5833 19.3167 38.9333 20 37 20H36V22C36 25.9 34.642 29.2087 31.926 31.926C29.21 34.6433 25.9013 36.0013 22 36ZM12 16H32V10H12V16ZM36 16H37C37.8333 16 38.542 15.7087 39.126 15.126C39.71 14.5433 40.0013 13.8347 40 13C39.9987 12.1653 39.7073 11.4573 39.126 10.876C38.5447 10.2947 37.836 10.0027 37 10H36V16ZM10 42C9.43334 42 8.95867 41.808 8.57601 41.424C8.19334 41.04 8.00134 40.5653 8.00001 40C7.99867 39.4347 8.19067 38.96 8.57601 38.576C8.96134 38.192 9.43601 38 10 38H38C38.5667 38 39.042 38.192 39.426 38.576C39.81 38.96 40.0013 39.4347 40 40C39.9987 40.5653 39.8067 41.0407 39.424 41.426C39.0413 41.8113 38.5667 42.0027 38 42H10Z" fill="#FBF3DC"/>
</svg>
